<?xml version="1.0" standalone="no"?>
<!DOCTYPE svg PUBLIC "-//W3C//DTD SVG 20010904//EN"
 "http://www.w3.org/TR/2001/REC-SVG-20010904/DTD/svg10.dtd">
<svg version="1.0" xmlns="http://www.w3.org/2000/svg"
 width="688.000000pt" height="1024.000000pt" viewBox="0 0 688.000000 1024.000000"
 preserveAspectRatio="xMidYMid meet">

<g transform="translate(0.000000,1024.000000) scale(0.100000,-0.100000)"
fill="#000000" stroke="none">
<path d="M3229 7767 c-166 -71 -192 -88 -241 -161 -74 -107 -108 -243 -108
-427 l0 -65 -117 -33 c-124 -33 -336 -118 -416 -164 -46 -27 -47 -28 -33 -55
37 -71 59 -161 65 -259 l6 -101 65 38 c66 40 273 133 322 145 23 6 27 3 33
-23 9 -41 78 -118 119 -133 28 -10 35 -20 50 -66 23 -76 61 -154 96 -198 28
-35 30 -44 30 -121 0 -45 -4 -94 -10 -108 -12 -33 -51 -52 -76 -38 -13 7 -32
2 -78 -19 -34 -16 -68 -29 -77 -29 -9 0 -41 -13 -72 -30 -31 -16 -110 -45
-176 -63 -70 -20 -132 -44 -149 -58 -46 -37 -97 -121 -136 -222 -19 -51 -80
-209 -135 -352 l-99 -260 31 -33 c18 -19 50 -47 73 -62 l41 -29 6 -99 c7 -101
31 -235 65 -352 16 -57 23 -67 53 -82 71 -35 191 -60 321 -65 l127 -6 3 -106
c3 -93 1 -108 -15 -122 -16 -13 -18 -29 -17 -110 2 -62 -3 -112 -14 -149 -27
-91 -39 -304 -32 -572 4 -148 3 -248 -2 -248 -19 0 -179 69 -245 105 -37 21
-69 36 -71 34 -1 -2 -14 -24 -28 -49 -25 -44 -134 -154 -193 -196 l-29 -21 59
-38 c204 -131 532 -252 815 -300 128 -22 484 -31 621 -16 341 39 699 161 957
327 l74 47 -34 25 c-51 39 -115 111 -159 177 -21 33 -40 63 -42 68 -1 4 -43
-14 -92 -42 -50 -27 -113 -59 -141 -70 l-52 -20 -6 22 c-3 12 -6 67 -6 122 -1
186 -28 547 -48 625 -13 54 -17 98 -14 157 4 78 3 83 -22 106 l-26 25 6 124 7
125 41 -8 c98 -18 202 -20 283 -6 133 24 133 24 171 157 35 121 62 280 62 367
l0 52 54 35 c30 19 62 46 71 60 17 26 32 -15 -206 585 -56 141 -86 196 -137
253 -44 49 -83 69 -189 97 -85 23 -154 48 -163 60 -3 4 -39 18 -80 33 -41 14
-90 31 -108 39 -24 10 -37 11 -50 2 -13 -8 -25 -6 -54 9 -43 24 -48 38 -48
139 0 70 3 80 32 120 39 54 94 171 103 221 6 31 11 37 40 42 39 8 89 60 117
123 10 24 21 43 23 43 29 0 315 -127 340 -151 23 -22 30 -6 31 74 1 95 16 170
51 245 14 29 23 55 22 56 -32 29 -322 143 -436 172 l-73 18 0 82 c0 107 -17
224 -41 290 -29 78 -111 189 -161 218 -24 13 -92 46 -153 71 -86 37 -124 48
-180 51 -67 4 -76 2 -196 -49z m331 -605 c94 -32 220 -93 237 -114 5 -7 18
-63 28 -125 16 -97 17 -125 7 -220 -29 -264 -114 -430 -277 -542 -60 -41 -68
-44 -132 -44 -99 0 -145 24 -251 130 -79 79 -92 96 -120 170 -63 161 -86 372
-58 527 8 49 19 92 24 95 5 3 11 13 14 22 11 29 198 115 288 133 53 10 158 -4
240 -32z m-652 -286 c7 -7 15 -30 19 -52 l6 -39 -35 39 c-21 24 -39 37 -46 32
-15 -9 -15 -46 -1 -66 9 -12 10 -11 6 7 -4 20 -2 21 14 13 16 -9 18 -18 13
-68 -5 -47 -3 -61 10 -75 32 -31 49 -18 20 14 -11 12 -14 27 -10 44 10 41 24
29 31 -27 4 -29 10 -68 15 -85 7 -29 6 -33 -10 -33 -29 0 -88 65 -101 112 -19
64 -18 186 1 198 17 11 48 4 68 -14z m1072 14 c18 -12 19 -123 1 -188 -12 -43
-58 -105 -93 -123 -28 -15 -30 -8 -17 46 6 25 15 42 18 37 11 -17 48 5 55 32
4 15 0 41 -8 59 -9 22 -10 39 -4 50 12 23 28 21 28 -3 0 -11 5 -20 10 -20 11
0 13 39 4 64 -7 19 -39 6 -66 -28 -17 -21 -18 -21 -18 12 0 53 49 88 90 62z
m-62 -169 c4 -28 -8 -43 -26 -32 -9 5 -11 17 -6 35 8 32 28 29 32 -3z m-616
-646 c94 -44 184 -31 293 42 l50 33 8 -72 c4 -40 11 -97 16 -126 9 -61 8 -63
-84 -103 -76 -34 -228 -38 -313 -10 -35 12 -82 33 -104 47 -32 20 -39 30 -34
47 3 12 11 68 17 124 l12 102 43 -30 c24 -16 67 -41 96 -54z m-194 -140 c-3
-3 -9 2 -12 12 -6 14 -5 15 5 6 7 -7 10 -15 7 -18z m-15 -48 c125 -105 280
-141 447 -101 81 19 137 51 188 109 44 50 89 63 77 23 -29 -94 -163 -177 -320
-199 -204 -28 -431 67 -459 194 -4 15 -4 27 -1 27 3 0 34 -24 68 -53z m-294
-60 c5 -12 30 -107 56 -211 38 -154 45 -193 36 -213 -16 -34 -14 -89 4 -124 9
-16 13 -34 10 -39 -3 -5 -12 -47 -21 -92 -26 -151 -28 -154 -48 -68 -18 78
-46 303 -46 378 0 57 -16 54 -24 -5 -16 -115 -13 -115 -65 -16 -50 94 -108
179 -128 187 -6 3 4 -21 22 -52 97 -163 175 -404 175 -539 0 -46 -3 -83 -6
-83 -3 0 -20 11 -38 25 -87 66 -272 104 -415 85 -46 -6 -93 -16 -104 -21 -10
-6 -20 -9 -23 -7 -6 7 214 587 243 640 36 65 72 94 141 113 31 9 86 27 122 39
84 30 99 31 109 3z m1334 -1 c40 -14 98 -32 129 -41 100 -27 154 -107 263
-390 52 -135 138 -351 151 -382 4 -8 -7 -8 -40 2 -25 8 -85 17 -133 21 -49 3
-95 12 -103 19 -8 6 -23 15 -32 18 -11 4 -18 17 -18 31 0 43 -43 66 -120 66
-37 0 -81 -5 -99 -11 -18 -6 -34 -10 -36 -7 -2 2 14 32 35 66 22 34 47 77 56
94 16 30 12 29 -40 -20 -32 -28 -62 -52 -66 -52 -35 0 59 342 123 450 21 35
21 35 0 17 -29 -25 -68 -101 -104 -203 -32 -93 -49 -122 -49 -88 -1 10 -7 30
-15 44 -12 22 -13 16 -8 -66 7 -107 -17 -304 -36 -304 -9 0 -46 160 -41 175
21 66 23 98 8 123 -17 30 -14 49 38 277 37 162 44 185 55 185 6 0 43 -11 82
-24z m-392 -179 c-22 -102 -45 -195 -51 -207 -7 -13 -15 -43 -19 -69 l-6 -46
-243 -3 -242 -2 0 32 c0 19 -8 49 -19 68 -17 33 -106 378 -99 386 2 1 24 -10
49 -27 97 -63 251 -96 370 -79 116 17 217 60 268 114 14 14 26 24 28 22 2 -2
-14 -87 -36 -189z m-615 -262 c7 -29 -1 -55 -17 -55 -7 0 -9 9 -5 25 7 29 8
29 -85 13 -68 -11 -70 -12 -67 -39 4 -38 -15 -38 -26 1 -12 40 -1 50 71 66 95
20 122 18 129 -11z m723 11 c35 -8 67 -19 71 -26 10 -17 -3 -73 -19 -78 -9 -3
-12 5 -9 29 3 33 2 34 -47 45 -27 7 -63 13 -79 13 -25 1 -28 -2 -24 -24 4 -17
1 -25 -9 -25 -18 0 -27 24 -19 55 8 30 35 32 135 11z m-779 -121 c0 -71 -2
-76 -25 -87 -36 -16 -43 -4 -47 77 l-3 69 30 7 c17 4 33 7 38 8 4 0 7 -33 7
-74z m776 60 c14 -4 6 -126 -11 -143 -10 -11 -17 -11 -34 -3 -18 10 -21 21
-21 87 l0 74 28 -6 c15 -3 32 -7 38 -9z m432 -211 c12 -4 22 -11 22 -18 0 -14
-78 -49 -91 -40 -12 7 -99 -34 -99 -47 0 -6 5 -7 10 -4 18 11 11 -1 -12 -21
-19 -15 -20 -16 -9 -1 16 21 4 23 -18 3 -61 -56 -72 -68 -69 -83 6 -31 25 -24
96 35 64 53 77 60 129 66 32 4 74 9 94 12 27 4 38 1 42 -10 8 -20 -25 -42 -78
-52 -55 -9 -93 -29 -140 -74 l-40 -37 -110 8 c-60 5 -121 10 -135 11 -22 3
-17 11 61 90 91 94 172 142 266 158 26 4 50 8 53 9 3 0 15 -2 28 -5z m-1736
-128 c76 -17 121 -37 161 -74 23 -22 27 -34 27 -79 0 -51 -1 -53 -27 -53 -64
-1 -196 -79 -224 -132 -11 -21 -11 -21 24 1 20 12 50 29 67 38 96 47 262 57
375 22 81 -25 278 -107 440 -184 66 -31 140 -66 164 -76 24 -11 42 -22 39 -24
-8 -9 -294 -73 -443 -101 -103 -19 -188 -27 -321 -31 -193 -6 -267 2 -381 39
l-63 21 -25 81 c-31 103 -52 243 -60 418 l-7 136 29 5 c62 9 161 6 225 -7z
m2015 -30 c12 -12 4 -289 -11 -366 -23 -120 -74 -268 -94 -274 -50 -16 -173
-24 -251 -15 -179 19 -345 77 -737 257 -298 137 -475 204 -586 222 -43 7 -75
17 -72 21 11 18 179 111 208 116 18 3 77 -8 141 -26 185 -51 337 -71 600 -81
343 -13 495 -40 623 -112 61 -34 68 -23 15 22 -29 24 -34 34 -23 38 8 3 30 20
48 39 29 31 32 40 32 94 0 58 1 60 23 55 15 -4 12 -1 -8 9 -30 16 -30 16 27
12 32 -2 61 -7 65 -11z m-497 -19 c0 -2 -10 -12 -22 -23 l-23 -19 19 23 c18
21 26 27 26 19z m348 -40 c2 -18 -2 -29 -12 -33 -9 -3 -13 -10 -10 -15 3 -5
-1 -6 -9 -3 -8 3 -38 -4 -68 -16 -54 -20 -132 -20 -144 1 -10 16 76 62 148 80
40 9 77 16 82 15 6 -1 11 -15 13 -29z m-925 -1714 c6 -9 87 -359 87 -373 0 -6
-43 -10 -110 -10 -91 0 -110 3 -110 15 0 16 46 301 56 348 5 23 11 27 39 27
19 0 36 -3 38 -7z"/>
<path d="M3103 7081 c-30 -14 -48 -31 -63 -61 -12 -23 -19 -44 -16 -47 2 -3
35 5 72 17 57 19 81 22 155 17 83 -5 87 -5 93 16 14 51 8 64 -31 71 -75 12
-167 6 -210 -13z"/>
<path d="M3522 7070 c-48 -11 -58 -24 -46 -57 9 -27 12 -28 59 -23 102 10 151
5 203 -19 29 -14 55 -22 58 -18 3 3 1 22 -6 42 -22 68 -149 103 -268 75z"/>
<path d="M3143 6954 c-32 -16 -73 -63 -86 -96 -11 -30 10 -20 32 15 11 18 30
42 42 53 l22 19 -9 -30 c-30 -106 34 -187 97 -124 18 18 21 29 16 75 -3 30 -4
54 -2 54 3 0 11 -13 20 -30 20 -39 37 -39 24 0 -14 39 -64 80 -97 80 -15 0
-41 -8 -59 -16z m81 -40 c7 -18 -21 -31 -36 -16 -15 15 -2 43 16 36 8 -3 17
-12 20 -20z"/>
<path d="M3563 6942 c-23 -18 -61 -97 -44 -91 5 2 20 19 33 38 31 46 56 55 34
13 -34 -66 -10 -132 48 -132 46 0 61 22 60 87 l0 53 23 -27 c12 -16 25 -36 28
-45 4 -10 10 -18 15 -18 12 0 -5 45 -31 81 -40 56 -121 76 -166 41z m107 -27
c10 -12 10 -19 2 -27 -16 -16 -42 -2 -42 22 0 24 22 26 40 5z"/>
<path d="M3367 6775 c-15 -98 -31 -140 -55 -143 -63 -9 14 -82 87 -82 35 1
114 37 106 50 -9 15 -52 12 -78 -4 -19 -13 -25 -13 -44 2 -20 15 -22 21 -12
54 5 21 9 68 7 105 l-3 68 -8 -50z"/>
<path d="M3145 6518 c-25 -20 -26 -22 -9 -31 11 -6 37 -25 59 -42 58 -47 95
-63 172 -77 62 -10 75 -9 138 10 51 16 82 33 115 64 25 23 50 41 57 40 25 -5
22 18 -6 37 -29 21 -44 19 -35 -4 3 -7 0 -16 -6 -20 -16 -10 -422 -12 -443 -2
-14 6 -16 12 -7 22 19 23 -6 26 -35 3z m390 -57 l60 -7 -48 -23 c-26 -12 -68
-24 -95 -28 -58 -6 -152 10 -189 34 l-27 18 54 6 c77 8 175 8 245 0z"/>
<path d="M3310 6325 c8 -10 33 -26 56 -36 44 -20 83 -15 130 16 34 22 30 36
-6 23 -33 -11 -142 -7 -175 7 -18 8 -19 7 -5 -10z"/>
<path d="M4845 7142 c-182 -61 -308 -191 -364 -376 -24 -78 -28 -220 -10 -308
37 -173 183 -330 369 -399 93 -34 274 -35 372 -1 187 65 336 226 378 411 18
75 15 203 -5 281 -51 196 -210 354 -410 405 -98 25 -235 20 -330 -13z m460
-209 c57 -49 104 -94 104 -101 1 -14 -110 -151 -120 -149 -4 1 -57 44 -118 96
-95 81 -109 97 -98 110 40 52 113 131 120 131 5 0 55 -39 112 -87z m-142 -191
c94 -81 111 -102 85 -102 -10 0 -178 136 -217 175 -1 2 0 9 4 14 9 15 14 11
128 -87z m-113 16 c22 -18 40 -36 40 -39 0 -3 -54 -68 -120 -145 -105 -122
-140 -174 -111 -162 4 2 61 65 126 141 65 75 123 137 129 137 6 -1 27 -14 46
-31 33 -28 34 -31 20 -54 -36 -58 -373 -436 -381 -428 -5 5 -12 33 -16 62 -5
48 -9 55 -38 67 -24 10 -42 11 -70 3 -20 -6 -39 -9 -41 -6 -13 13 40 93 139
209 61 73 139 166 172 205 33 40 61 73 63 73 2 0 21 -15 42 -32z"/>
<path d="M1595 7122 c-94 -28 -164 -71 -240 -147 -116 -115 -165 -234 -166
-400 0 -156 48 -278 152 -390 109 -116 255 -179 414 -179 158 0 287 54 398
165 117 117 177 281 164 449 -17 222 -169 419 -377 491 -89 31 -259 36 -345
11z m305 -457 l0 -245 -300 2 -300 3 -2 230 c-2 127 1 236 5 243 6 9 78 12
303 12 l294 0 0 -245z m228 -128 c2 -347 1 -368 -15 -365 -17 3 -18 28 -21
351 l-2 348 -63 -3 -62 -3 0 -345 c0 -320 -1 -345 -17 -348 -17 -3 -18 19 -18
361 0 200 3 367 7 371 4 4 48 5 98 4 l90 -3 3 -368z m-68 143 c0 -5 -18 -10
-40 -10 -22 0 -40 4 -40 8 0 4 18 9 40 10 23 2 40 -2 40 -8z m-17 -97 c-7 -2
-19 -2 -25 0 -7 3 -2 5 12 5 14 0 19 -2 13 -5z m12 -143 c4 -6 -9 -10 -32 -10
-28 0 -34 3 -23 10 20 13 47 13 55 0z"/>
<path d="M1334 6861 c-2 -2 -4 -94 -4 -203 l0 -198 265 0 265 0 0 200 c0 153
-3 200 -12 200 -7 0 -125 1 -261 2 -137 2 -251 1 -253 -1z"/>
<path d="M5335 6044 c-67 -40 -145 -65 -242 -77 l-91 -12 50 -80 c58 -94 127
-229 153 -300 10 -27 20 -52 22 -54 1 -2 32 10 67 28 76 37 201 71 263 71 52
0 52 -6 -3 128 -60 147 -155 323 -172 321 -4 0 -25 -12 -47 -25z"/>
<path d="M1343 5913 c-34 -71 -75 -167 -92 -215 l-30 -88 42 6 c52 7 213 -20
276 -46 25 -11 52 -21 58 -22 8 -2 33 42 61 107 26 61 71 147 100 193 29 46
52 85 52 86 0 2 -42 6 -92 8 -94 6 -226 44 -280 82 -12 9 -25 16 -29 16 -3 0
-33 -57 -66 -127z"/>
<path d="M5525 5550 c-134 -15 -267 -81 -356 -176 -101 -110 -151 -238 -152
-389 0 -117 21 -194 80 -294 102 -171 330 -292 524 -277 255 20 453 177 523
415 25 84 21 249 -7 332 -89 261 -338 419 -612 389z m496 -282 c0 -7 0 -125 0
-263 -1 -185 -5 -251 -14 -257 -14 -9 -751 -11 -784 -2 l-23 6 0 264 0 264
410 0 c321 0 410 -3 411 -12z m-303 -568 c-4 -25 -1 -29 21 -32 14 -2 26 -7
26 -13 0 -6 -61 -11 -158 -13 -125 -2 -158 0 -155 10 3 7 16 14 31 16 18 2 24
8 20 18 -14 37 3 44 113 44 l106 0 -4 -30z"/>
<path d="M5235 5237 c-3 -7 -4 -102 -3 -212 l3 -200 375 0 375 0 0 210 0 210
-373 3 c-297 2 -374 0 -377 -11z m735 -202 l0 -185 -355 0 -354 0 -3 185 -3
185 358 0 357 0 0 -185z"/>
<path d="M5283 4793 c32 -2 81 -2 110 0 29 2 3 3 -58 3 -60 0 -84 -1 -52 -3z"/>
<path d="M1210 5543 c-175 -29 -340 -151 -414 -306 -182 -378 63 -799 479
-824 166 -10 321 50 440 171 82 84 118 146 145 252 36 138 21 273 -43 403 -41
84 -149 195 -234 239 -109 57 -261 84 -373 65z m258 -219 c150 -75 204 -276
99 -372 -21 -20 -37 -24 -99 -25 -64 -2 -80 2 -128 28 -53 29 -120 102 -120
131 0 7 17 22 38 33 21 11 44 27 51 35 32 38 86 -4 79 -61 -4 -37 -41 -43 -73
-13 -17 16 -28 19 -39 13 -14 -7 -8 -13 27 -31 57 -28 73 -28 93 3 27 41 5 98
-45 116 -20 8 -31 5 -60 -19 -46 -37 -77 -53 -85 -45 -10 11 -6 116 7 153 28
81 150 107 255 54z m-272 -61 c-31 -80 -7 -186 58 -260 53 -60 123 -93 201
-93 42 0 56 -3 45 -10 -27 -17 -113 -10 -171 14 l-56 23 -54 -48 -54 -48 118
-1 c95 0 117 -3 117 -15 0 -7 -7 -18 -15 -22 -12 -7 -14 -22 -7 -83 l7 -75 57
-3 c45 -2 60 -7 68 -23 6 -11 8 -24 5 -29 -4 -6 -76 -10 -176 -10 -148 0 -170
2 -176 16 -9 25 24 44 78 44 53 0 52 -1 64 102 l7 56 -88 4 c-65 2 -94 0 -106
-11 -10 -7 -24 -11 -33 -8 -24 10 -56 69 -50 95 4 16 1 22 -11 22 -11 0 -15 6
-11 19 3 14 0 17 -14 14 -26 -7 -24 9 5 36 25 24 49 21 40 -3 -3 -8 -1 -17 5
-21 6 -3 11 -1 11 4 0 6 7 11 15 11 8 0 15 -4 15 -10 0 -5 -4 -10 -10 -10 -5
0 -10 -5 -10 -11 0 -22 23 6 49 60 35 74 41 82 51 76 5 -3 0 -26 -12 -51 l-20
-47 31 -31 31 -31 27 27 c25 26 26 28 10 46 -10 10 -31 45 -47 77 -23 45 -30
72 -30 116 0 63 13 109 31 109 6 0 8 -7 5 -17z"/>
<path d="M1101 4921 c-19 -15 -21 -21 -13 -38 6 -11 18 -26 27 -33 14 -11 20
-10 43 13 l26 26 -24 26 c-28 30 -28 30 -59 6z"/>
<path d="M1070 4820 c0 -5 5 -10 10 -10 6 0 10 5 10 10 0 6 -4 10 -10 10 -5 0
-10 -4 -10 -10z"/>
<path d="M5292 4321 c-12 -50 -40 -139 -63 -198 -22 -59 -42 -114 -42 -121 -1
-9 26 -24 68 -39 78 -28 154 -74 213 -128 l40 -35 40 92 c51 116 86 221 113
335 11 48 22 96 25 106 5 15 -4 17 -95 17 -94 0 -172 16 -262 54 -13 6 -20 -8
-37 -83z"/>
<path d="M1460 4363 c-52 -17 -189 -22 -272 -10 l-56 8 20 -93 c25 -121 89
-308 143 -425 24 -51 46 -93 49 -93 3 0 28 25 57 55 55 58 149 123 212 146 20
7 37 16 37 20 0 4 -13 37 -29 73 -33 72 -85 230 -96 289 -4 20 -10 39 -14 41
-3 1 -26 -4 -51 -11z"/>
<path d="M4970 3929 c-284 -33 -499 -276 -500 -565 0 -93 16 -160 60 -253 112
-233 380 -363 633 -307 115 26 190 68 277 155 124 124 177 263 167 436 -9 152
-66 277 -173 381 -123 120 -286 174 -464 153z m338 -135 l22 -15 0 -398 c0
-295 -3 -400 -12 -409 -17 -17 -509 -17 -526 0 -9 9 -12 114 -12 409 l0 398
22 15 c19 13 61 16 253 16 192 0 234 -3 253 -16z"/>
<path d="M4837 3744 c-4 -4 -7 -153 -7 -331 l0 -323 223 2 222 3 0 325 0 325
-216 3 c-118 1 -218 -1 -222 -4z m78 -68 c0 -35 -30 -44 -46 -14 -15 28 -4 50
23 46 18 -2 23 -10 23 -32z m5 -96 c0 -16 -4 -30 -9 -30 -5 0 -16 -3 -25 -6
-13 -5 -16 1 -16 30 0 32 3 36 25 36 21 0 25 -5 25 -30z m-5 -95 c0 -23 -5
-31 -22 -33 -20 -3 -23 1 -23 33 0 32 3 36 23 33 17 -2 22 -10 22 -33z m5 -95
c0 -25 -4 -30 -25 -30 -21 0 -25 5 -25 30 0 25 4 30 25 30 21 0 25 -5 25 -30z
m-5 -95 c0 -23 -5 -31 -21 -33 -17 -2 -22 3 -26 28 -5 35 -1 42 27 38 15 -2
20 -10 20 -33z m3 -92 c-2 -20 -9 -29 -25 -31 -20 -3 -23 1 -23 27 0 27 4 31
26 31 22 0 25 -4 22 -27z"/>
<path d="M5025 3039 c-14 -43 45 -66 61 -24 8 19 -13 45 -37 45 -10 0 -21 -10
-24 -21z"/>
<path d="M1716 3914 c-158 -38 -300 -152 -373 -301 -50 -99 -68 -195 -59 -305
7 -87 36 -175 55 -170 15 3 353 196 394 225 32 22 34 21 71 -45 l27 -47 -23
-14 c-13 -8 -110 -65 -215 -128 -106 -62 -193 -116 -193 -120 0 -4 25 -30 56
-58 237 -217 584 -211 804 13 115 117 162 229 163 391 1 126 -26 218 -96 322
-107 161 -286 254 -480 252 -40 0 -99 -7 -131 -15z m484 -335 c33 -58 60 -110
60 -115 0 -5 -21 -21 -48 -36 -26 -15 -71 -41 -100 -58 -48 -28 -53 -29 -60
-13 -4 10 -31 59 -59 109 -29 50 -53 95 -53 100 0 5 28 24 63 43 94 51 129 73
123 78 -2 3 -49 -20 -104 -51 -55 -31 -103 -56 -107 -56 -23 0 13 29 100 79
117 68 98 76 185 -80z m-225 -144 c47 -81 85 -148 85 -150 0 -5 -139 -85 -148
-85 -9 0 -167 262 -174 288 -3 10 143 104 150 97 2 -1 41 -69 87 -150z m305
-5 c0 -11 -180 -120 -199 -120 -29 0 -1 23 89 75 99 57 110 61 110 45z"/>
</g>
</svg>
