<?xml version="1.0" standalone="no"?>
<!DOCTYPE svg PUBLIC "-//W3C//DTD SVG 20010904//EN"
 "http://www.w3.org/TR/2001/REC-SVG-20010904/DTD/svg10.dtd">
<svg version="1.0" xmlns="http://www.w3.org/2000/svg"
 width="640.000000pt" height="640.000000pt" viewBox="0 0 640.000000 640.000000"
 preserveAspectRatio="xMidYMid meet">

<g transform="translate(0.000000,640.000000) scale(0.100000,-0.100000)"
fill="#000000" stroke="none">
<path d="M0 3200 l0 -3200 3200 0 3200 0 0 3200 0 3200 -3200 0 -3200 0 0
-3200z m3581 3126 c640 -90 1197 -342 1674 -756 410 -357 742 -857 916 -1380
177 -533 206 -1125 83 -1680 -145 -650 -507 -1256 -1013 -1692 -415 -359 -926
-608 -1451 -708 -263 -49 -327 -55 -620 -55 -295 1 -421 14 -674 71 -452 101
-886 306 -1251 589 -185 144 -423 382 -552 555 -27 36 -68 90 -90 120 -119
159 -298 501 -378 725 -133 369 -188 679 -189 1070 -1 305 23 510 90 780 165
657 553 1266 1069 1679 515 412 1105 647 1765 700 100 8 521 -4 621 -18z"/>
<path d="M3014 5045 c-295 -43 -557 -159 -804 -356 -257 -204 -475 -519 -569
-823 -79 -256 -83 -574 -11 -857 31 -119 97 -304 141 -391 22 -44 39 -81 37
-82 -2 -1 -48 -11 -103 -21 -110 -20 -364 -80 -372 -89 -3 -3 10 -82 30 -175
25 -123 31 -173 23 -179 -6 -5 -36 -14 -66 -21 -95 -23 -315 -83 -324 -89 -5
-3 12 -24 39 -47 l48 -42 13 -114 c27 -229 34 -313 34 -390 0 -92 -3 -90 100
-53 369 133 1157 321 1480 353 211 22 498 33 655 26 305 -13 729 -79 1060
-165 246 -65 288 -75 420 -101 61 -12 163 -37 228 -56 65 -18 120 -33 123 -33
3 0 4 57 2 128 -2 127 -2 127 36 217 49 114 100 218 126 255 11 15 20 33 20
39 0 11 -105 45 -295 96 l-120 31 3 50 c1 27 13 100 25 162 l23 114 -25 10
c-44 16 -321 78 -352 78 -16 0 -29 2 -29 4 0 2 18 42 40 89 113 240 179 540
180 812 0 118 -34 344 -66 442 -37 111 -132 307 -199 410 -349 536 -984 850
-1551 768z m397 -71 c442 -61 844 -359 1087 -805 123 -227 174 -431 174 -692
-1 -169 -13 -279 -48 -419 -32 -126 -92 -280 -108 -275 -11 5 -12 8 -1 42 4
16 3 15 -6 -2 -11 -22 -39 -32 -39 -15 0 4 -39 8 -87 9 -48 2 -93 5 -100 8 -9
3 -13 28 -13 79 0 64 5 84 31 136 16 33 35 60 40 60 5 0 28 24 51 54 41 54 43
54 85 49 30 -4 43 -1 43 7 0 7 8 10 20 7 11 -3 18 -1 15 3 -3 5 2 13 12 18 29
17 -10 44 -70 50 -29 3 -55 10 -59 15 -12 19 26 36 80 37 71 0 135 38 130 78
-2 18 -10 28 -23 30 -11 2 -27 5 -35 8 -13 4 -13 6 0 14 19 12 6 24 -44 40
-50 16 -262 14 -364 -4 -42 -8 -99 -25 -126 -40 -27 -14 -60 -26 -74 -26 -29
0 -74 -44 -66 -64 6 -15 -42 -36 -81 -36 -25 0 -79 -42 -69 -53 4 -4 20 -7 36
-7 15 0 28 -4 28 -10 0 -5 11 -12 25 -16 14 -3 25 -10 25 -14 0 -5 15 -11 33
-15 58 -12 87 -29 87 -50 0 -32 52 -107 105 -151 95 -78 95 -79 95 -134 l0
-50 -58 0 c-45 0 -144 -20 -170 -34 -1 0 -4 45 -6 100 -4 100 -3 102 21 113
24 11 23 31 -1 31 -8 0 -20 10 -28 22 -11 16 -20 20 -40 15 -34 -9 -62 -61
-46 -86 9 -14 4 -26 -22 -62 -31 -43 -32 -45 -25 -119 4 -41 8 -95 9 -120 l2
-45 154 -21 c362 -51 504 -77 560 -101 8 -3 18 -6 22 -5 4 1 5 -5 2 -13 -4 -8
-12 -15 -19 -15 -7 0 -12 -10 -11 -22 1 -20 -4 -23 -39 -22 -22 0 -164 14
-315 31 -461 53 -562 58 -1133 58 -291 -1 -520 2 -510 6 14 6 13 8 -9 8 -20 1
-26 5 -22 16 4 8 1 15 -5 15 -6 0 -11 -5 -11 -11 0 -6 -7 -8 -17 -5 -9 4 -20
1 -25 -6 -8 -10 -11 -10 -15 0 -5 13 -23 7 -23 -9 0 -5 15 -10 33 -10 32 -2
32 -2 3 -6 -16 -3 -35 -11 -43 -19 -8 -8 -26 -14 -41 -14 -15 0 -107 -9 -205
-21 -118 -15 -181 -19 -185 -12 -4 5 -18 16 -31 23 -19 10 -25 10 -33 -1 -8
-11 -9 -10 -4 4 4 12 0 17 -12 17 -13 0 -11 4 8 15 50 28 68 33 186 49 65 9
184 26 264 37 80 12 170 23 200 25 118 10 118 10 123 57 3 23 5 57 6 76 1 55
17 58 36 7 12 -30 15 -57 11 -81 l-7 -35 56 0 c54 0 55 0 55 29 0 17 -4 32 -9
36 -18 11 -67 214 -58 238 5 15 12 13 56 -10 35 -18 72 -27 120 -31 l69 -5 6
-47 c4 -27 2 -60 -4 -76 -13 -35 -49 -74 -66 -74 -7 0 -19 -8 -26 -18 -7 -11
-20 -21 -28 -24 -24 -9 50 -20 110 -16 51 3 55 5 52 27 -1 13 8 39 20 59 20
32 22 33 35 16 15 -21 17 -50 3 -59 -5 -3 -10 -13 -10 -21 0 -11 17 -14 83
-14 45 0 89 5 97 10 11 7 6 10 -21 10 -43 0 -51 7 -37 30 9 13 3 35 -25 102
-21 47 -37 88 -37 92 0 3 12 24 26 46 15 22 30 54 34 72 l7 33 23 -49 c19 -42
21 -58 15 -110 -4 -34 -8 -81 -9 -106 -1 -41 1 -45 25 -48 19 -2 28 3 37 23
16 36 15 49 -7 69 -14 13 -20 36 -24 99 -3 45 -12 105 -21 132 -20 64 -97 161
-160 200 -45 28 -57 30 -160 34 -127 4 -159 18 -170 73 -4 21 -26 53 -58 85
l-52 53 -92 0 c-50 0 -132 -3 -183 -7 l-91 -6 -64 -58 c-38 -35 -70 -75 -80
-99 -11 -29 -22 -40 -37 -40 -17 0 -20 -4 -16 -22 4 -14 0 -26 -11 -35 -16
-12 -16 -14 3 -28 10 -9 21 -30 23 -47 11 -94 94 -141 191 -107 20 7 31 18 31
30 0 21 -10 24 -25 10 -6 -5 -30 -12 -55 -16 -40 -6 -48 -4 -69 19 -28 29 -39
103 -19 126 11 12 30 14 102 10 58 -3 91 -9 93 -17 4 -10 10 -10 24 -2 23 12
58 3 61 -14 1 -7 2 -25 2 -42 1 -28 3 -30 41 -30 l40 0 6 -56 c3 -31 9 -61 12
-66 9 -14 39 -222 35 -244 -2 -15 -16 -3 -56 49 -127 168 -171 187 -430 184
-96 -1 -182 -7 -192 -12 -26 -14 -47 -13 -33 1 8 8 6 16 -7 29 -11 11 -22 35
-26 54 -3 20 -10 33 -15 30 -12 -7 -11 33 1 57 7 13 7 19 0 19 -5 0 -10 22
-10 50 0 28 -3 50 -7 50 -5 0 -9 64 -10 143 -1 78 -3 158 -3 177 -1 19 -1 40
0 45 1 6 1 27 0 49 -1 23 2 36 8 32 5 -3 13 1 16 10 4 12 2 15 -9 10 -13 -5
-14 -2 -4 15 6 11 8 27 5 35 -3 8 -2 14 3 14 5 0 12 17 16 37 4 21 12 47 18
58 6 11 11 23 12 27 0 4 10 15 23 23 21 15 22 42 1 30 -5 -3 -6 1 -3 9 3 9 10
16 16 16 5 0 6 -4 3 -10 -3 -5 -1 -10 4 -10 6 0 11 11 11 24 0 14 5 28 10 31
6 4 8 11 5 16 -4 5 1 9 9 9 8 0 21 10 27 23 7 12 15 24 19 27 4 3 19 29 35 58
15 28 32 52 37 52 4 0 8 6 8 13 0 6 18 30 40 51 22 22 40 43 40 48 0 5 4 7 9
4 5 -4 19 10 31 29 12 20 27 41 33 48 7 7 28 32 48 57 53 66 119 129 187 180
59 44 79 67 67 79 -3 3 -10 -1 -14 -8 -5 -7 -14 -10 -21 -6 -6 4 -36 -10 -68
-31 -64 -43 -73 -49 -125 -82 -20 -13 -37 -28 -37 -33 0 -5 -5 -9 -12 -9 -22
0 -193 -184 -246 -265 -59 -89 -167 -303 -159 -312 3 -3 -1 -12 -9 -20 -8 -9
-12 -23 -9 -31 3 -9 3 -13 -1 -9 -10 10 -34 -61 -34 -103 0 -23 -3 -30 -9 -22
-5 9 -10 -3 -15 -35 -3 -26 -12 -80 -19 -120 -21 -115 -20 -245 2 -373 25
-140 45 -213 55 -203 4 4 4 0 1 -9 -4 -9 0 -29 8 -45 21 -41 30 -73 20 -73
-12 0 -58 130 -82 230 -29 127 -44 281 -37 379 8 101 54 301 86 376 5 11 27
65 50 120 85 203 191 357 347 505 246 234 525 365 858 404 80 9 246 4 346 -10z
m-1417 -800 c3 -8 2 -12 -4 -9 -6 3 -10 10 -10 16 0 14 7 11 14 -7z m-197
-686 c-3 -7 -5 -2 -5 12 0 14 2 19 5 13 2 -7 2 -19 0 -25z m2461 -124 c25 -16
30 -39 6 -30 -9 3 -20 6 -25 6 -4 0 -6 6 -3 13 3 9 -7 18 -28 25 -32 11 -32
11 -3 6 17 -3 40 -12 53 -20z m-65 -21 c-7 -2 -19 -2 -25 0 -7 3 -2 5 12 5 14
0 19 -2 13 -5z m187 -143 c0 -16 -60 -79 -82 -86 -15 -5 -26 0 -39 17 -23 30
-24 39 -3 39 9 0 27 9 41 20 26 21 83 28 83 10z m-337 -18 c-2 -8 17 -9 60 -6
54 5 66 3 90 -16 15 -12 37 -40 48 -62 19 -37 19 -41 4 -64 -19 -30 -32 -30
-85 -1 -52 27 -96 70 -121 119 -22 44 -23 51 -6 45 6 -2 11 -9 10 -15z m-2163
-156 c0 -3 -4 -8 -10 -11 -5 -3 -10 -1 -10 4 0 6 5 11 10 11 6 0 10 -2 10 -4z
m2007 -263 c-3 -10 -5 -4 -5 12 0 17 2 24 5 18 2 -7 2 -21 0 -30z m-1920 -289
c-3 -3 -12 -4 -19 -1 -8 3 -5 6 6 6 11 1 17 -2 13 -5z m1011 -51 l3 -43 -70 0
-71 0 0 -34 c0 -34 1 -35 48 -38 47 -3 47 -3 47 -38 0 -35 -1 -35 -47 -38
l-47 -3 -3 -57 -3 -57 -50 0 -50 0 0 170 0 170 65 6 c36 3 90 6 120 5 l55 -1
3 -42z m289 26 c44 -21 73 -60 73 -99 0 -34 -28 -79 -61 -96 l-31 -16 23 -26
c13 -15 36 -41 52 -58 16 -18 25 -34 20 -37 -5 -3 -35 -3 -66 0 -55 6 -59 8
-95 57 l-37 51 -3 -53 -3 -53 -52 3 c-52 3 -52 3 -51 36 0 17 1 95 2 172 l2
140 92 0 c73 0 101 -4 135 -21z m280 -159 c2 -91 -1 -171 -5 -178 -6 -8 -22
-10 -55 -6 l-47 7 0 158 c0 86 3 165 6 174 5 12 17 15 53 13 l46 -3 2 -165z
m-926 -15 c36 -88 65 -163 62 -167 -2 -5 -24 -8 -48 -8 -34 0 -47 5 -55 21
-10 17 -19 20 -63 17 -45 -3 -52 -6 -57 -28 -6 -25 -31 -37 -84 -39 -22 -1
-27 3 -23 17 3 9 24 82 46 162 23 80 44 153 47 162 6 20 26 27 73 25 l35 -2
67 -160z m1238 154 c34 -12 36 -17 21 -71 l-11 -37 -36 15 c-34 14 -38 14 -62
-4 -21 -15 -27 -29 -29 -70 -4 -66 23 -96 81 -89 l38 5 -3 -46 -3 -47 -63 1
c-76 1 -107 20 -139 84 -36 70 -27 167 19 218 45 48 119 64 187 41z m254 -31
c12 -10 82 -254 100 -352 1 -6 -10 -10 -28 -8 -59 5 -75 12 -75 32 0 42 -98
55 -123 17 -12 -19 -21 -22 -61 -19 -53 5 -56 12 -22 73 13 24 45 95 71 157
l47 112 37 0 c20 0 45 -6 54 -12z m-1344 -396 c18 -20 22 -33 17 -60 -8 -51
-32 -72 -82 -72 -33 0 -46 5 -58 22 -32 45 -12 118 38 138 29 12 57 3 85 -28z
m106 -22 c16 -33 32 -60 35 -60 4 0 16 23 27 52 19 50 45 79 58 66 4 -3 9 -40
12 -82 7 -89 -9 -104 -24 -23 l-10 52 -23 -52 c-30 -69 -49 -69 -81 -1 l-24
52 -5 -49 c-7 -72 -30 -71 -30 2 0 119 22 134 65 43z m305 50 c0 -10 -19 -14
-52 -12 -20 2 -42 -23 -33 -38 3 -5 22 -10 41 -10 19 0 34 -4 34 -10 0 -5 -15
-10 -34 -10 -19 0 -38 -4 -41 -10 -7 -11 8 -42 18 -41 4 1 24 1 44 1 26 0 34
-3 26 -11 -5 -5 -34 -9 -64 -7 l-54 3 -3 64 c-2 35 -1 70 2 77 6 16 116 20
116 4z m162 -7 c20 -18 24 -53 6 -71 -9 -9 -9 -18 0 -37 15 -32 15 -35 0 -35
-7 0 -21 14 -30 31 -22 38 -52 36 -56 -4 -2 -16 -8 -27 -15 -24 -12 4 -22 118
-13 143 8 20 85 18 108 -3z m242 -3 c7 -7 -5 -10 -32 -10 -54 0 -56 -23 -4
-47 41 -20 55 -60 28 -82 -18 -15 -88 -11 -93 6 -3 8 8 10 36 6 37 -5 41 -3
41 15 0 13 -9 23 -22 28 -31 9 -58 34 -58 52 0 30 32 54 64 48 17 -4 35 -11
40 -16z m-979 -9 c-6 -5 -19 -11 -30 -13 -18 -3 -20 -11 -18 -71 2 -54 0 -67
-12 -67 -12 0 -15 13 -15 60 0 45 -4 62 -15 65 -51 16 -51 17 -30 25 28 12
131 12 120 1z m1135 -4 c0 -9 -12 -11 -41 -9 -38 4 -40 3 -37 -19 2 -19 10
-25 36 -27 41 -4 38 -27 -4 -27 -22 0 -30 -5 -32 -22 -3 -21 1 -23 38 -23 28
0 40 -4 38 -12 -4 -12 -82 -13 -100 -1 -5 2 -8 38 -8 79 l0 74 55 0 c38 0 55
-4 55 -13z m64 -37 c3 -22 10 -40 15 -40 4 0 13 18 20 40 12 39 31 55 31 25 0
-23 -51 -145 -61 -145 -5 0 -9 1 -9 3 0 9 -22 124 -26 140 -3 10 0 17 9 17 9
0 17 -15 21 -40z m-1364 21 c0 -5 -12 -11 -27 -13 -38 -4 -36 -30 3 -40 40
-10 58 -32 50 -62 -6 -26 -52 -49 -88 -44 -35 5 -24 22 19 28 51 7 53 38 3 54
-59 19 -51 86 11 86 16 0 29 -4 29 -9z m1486 -41 c4 -28 10 -53 15 -56 5 -3
19 15 31 40 12 26 28 46 36 46 7 0 12 -3 10 -7 -2 -5 -19 -38 -37 -75 -18 -38
-39 -68 -47 -68 -8 0 -14 3 -14 8 0 4 -7 38 -14 76 -8 38 -13 73 -10 78 13 20
24 4 30 -42z m-1611 -14 c8 -65 -8 -106 -46 -120 -46 -16 -77 -1 -89 45 -13
47 -10 101 6 106 7 2 13 -19 17 -58 5 -59 16 -78 44 -79 29 0 43 32 43 96 0
78 16 84 25 10z m1745 -30 c0 -68 -6 -96 -21 -96 -11 0 -12 48 -3 114 10 67
24 56 24 -18z m161 44 c10 -6 19 -17 19 -26 0 -11 -4 -12 -19 -4 -26 14 -64
13 -79 -2 -17 -17 -15 -74 4 -92 16 -16 23 -19 61 -20 13 -1 23 -5 22 -11 0
-5 -18 -10 -41 -9 -54 1 -88 38 -88 94 0 62 65 99 121 70z m-2098 -15 c-1 -5
-19 -12 -40 -15 -49 -7 -71 -45 -51 -87 12 -25 19 -28 57 -26 50 2 52 -17 2
-31 -39 -11 -81 15 -92 59 -10 36 13 92 43 105 29 12 84 8 81 -5z m2250 -21
c32 -10 17 -26 -20 -22 -32 3 -38 0 -38 -17 0 -15 8 -21 33 -25 42 -6 38 -26
-4 -22 -18 2 -35 -1 -38 -7 -9 -14 22 -41 49 -41 21 0 43 -16 33 -25 -4 -4
-100 13 -106 20 -2 2 -1 38 3 80 l7 76 31 -6 c18 -4 40 -9 50 -11z m-936 -210
c-3 -3 -12 -4 -19 -1 -8 3 -5 6 6 6 11 1 17 -2 13 -5z"/>
<path d="M3698 4833 c7 -3 16 -2 19 1 4 3 -2 6 -13 5 -11 0 -14 -3 -6 -6z"/>
<path d="M3740 4815 c7 -8 17 -15 22 -15 5 0 3 7 -6 15 -8 8 -18 15 -22 15 -3
0 -1 -7 6 -15z"/>
<path d="M2631 4804 c0 -11 3 -14 6 -6 3 7 2 16 -1 19 -3 4 -6 -2 -5 -13z"/>
<path d="M2597 4804 c-8 -8 1 -24 12 -24 4 0 8 7 8 15 0 16 -9 20 -20 9z"/>
<path d="M3780 4800 c0 -12 40 -34 48 -25 3 3 -4 8 -16 12 -12 3 -19 9 -16 14
3 5 0 9 -5 9 -6 0 -11 -4 -11 -10z"/>
<path d="M2556 4774 c-9 -24 -7 -27 9 -10 17 17 19 26 6 26 -5 0 -12 -7 -15
-16z"/>
<path d="M3840 4768 c0 -3 25 -22 55 -43 31 -21 59 -44 63 -51 10 -17 54 -23
59 -7 3 8 -3 11 -16 8 -23 -4 -72 30 -68 48 1 7 -4 11 -10 10 -7 -2 -13 1 -13
6 0 5 -8 11 -17 14 -10 2 -26 8 -35 12 -10 4 -18 5 -18 3z"/>
<path d="M4023 4649 c-8 -8 -6 -16 6 -28 9 -10 43 -46 75 -80 43 -46 61 -59
67 -49 6 9 8 7 7 -7 -2 -18 44 -94 122 -203 16 -23 30 -47 30 -53 0 -16 51
-59 62 -53 6 4 8 -3 3 -17 -5 -19 -4 -21 4 -9 9 13 12 13 20 1 8 -12 12 -12
26 2 9 10 11 17 5 17 -7 0 -9 8 -5 20 4 11 2 20 -4 20 -6 0 -11 7 -11 15 0 8
-5 15 -11 15 -5 0 -8 4 -5 9 4 5 3 11 -1 13 -5 1 -17 20 -27 40 -10 21 -23 35
-27 32 -5 -3 -9 2 -9 10 0 9 -11 28 -25 43 -13 16 -36 43 -51 61 -14 17 -30
30 -35 26 -5 -3 -9 2 -9 10 0 8 -9 17 -20 21 -11 3 -19 12 -17 18 1 7 -3 11
-10 10 -7 -2 -10 4 -7 12 4 10 2 13 -7 10 -8 -3 -18 4 -24 17 -6 13 -14 23
-20 23 -5 0 -25 15 -43 33 -36 35 -43 37 -59 21z m111 -78 c4 -5 -3 -7 -14 -4
-23 6 -26 13 -6 13 8 0 17 -4 20 -9z m268 -363 c-7 -7 -12 -8 -12 -2 0 6 3 14
7 17 3 4 9 5 12 2 2 -3 -1 -11 -7 -17z m15 -30 c-3 -8 -6 -5 -6 6 -1 11 2 17
5 13 3 -3 4 -12 1 -19z"/>
<path d="M2995 4478 c-33 -5 -71 -11 -85 -12 -66 -6 -85 -17 -108 -59 -13 -23
-37 -51 -54 -62 -58 -37 -92 -90 -100 -158 -20 -159 -21 -155 50 -228 l63 -66
82 5 c47 2 92 10 105 19 18 11 30 12 57 3 18 -6 36 -17 39 -25 3 -9 19 -15 37
-15 29 0 31 -2 26 -27 -3 -16 -8 -35 -12 -43 -3 -10 8 -32 29 -56 19 -22 39
-59 45 -82 7 -22 15 -44 20 -46 14 -9 23 -76 13 -89 -6 -7 -15 -30 -22 -52
-13 -44 -13 -44 55 -210 20 -49 42 -96 47 -102 6 -8 33 -13 65 -13 50 0 57 3
104 47 27 25 52 58 56 72 3 14 14 32 24 39 11 8 19 28 21 54 3 38 7 45 43 65
52 29 61 55 39 120 -25 73 -15 93 86 178 86 73 130 135 130 183 0 20 -4 23
-22 19 -80 -19 -97 -19 -124 2 -15 12 -32 30 -38 40 -6 11 -26 40 -43 66 -18
25 -33 50 -33 55 0 5 -21 50 -47 101 -30 60 -42 94 -35 97 7 2 12 12 12 23 0
18 -18 24 -62 21 -9 -1 -42 7 -74 18 -69 24 -100 25 -112 4 -8 -14 -12 -14
-46 0 -67 28 -97 55 -90 81 5 21 1 25 -33 34 -21 6 -40 10 -43 10 -3 -1 -32
-6 -65 -11z"/>
<path d="M4476 4103 c-4 -9 -2 -21 4 -27 7 -7 10 -2 10 17 0 31 -5 34 -14 10z"/>
<path d="M4500 4030 c0 -5 5 -10 10 -10 6 0 10 5 10 10 0 6 -4 10 -10 10 -5 0
-10 -4 -10 -10z"/>
<path d="M4530 3976 c0 -2 7 -9 15 -16 12 -10 15 -10 15 4 0 9 -7 16 -15 16
-8 0 -15 -2 -15 -4z"/>
<path d="M4592 3750 c0 -14 2 -19 5 -12 2 6 2 18 0 25 -3 6 -5 1 -5 -13z"/>
<path d="M4575 3280 c3 -5 8 -10 11 -10 2 0 4 5 4 10 0 6 -5 10 -11 10 -5 0
-7 -4 -4 -10z"/>
<path d="M4601 3144 c0 -11 3 -14 6 -6 3 7 2 16 -1 19 -3 4 -6 -2 -5 -13z"/>
<path d="M4570 3130 c0 -5 5 -10 11 -10 5 0 7 5 4 10 -3 6 -8 10 -11 10 -2 0
-4 -4 -4 -10z"/>
<path d="M4576 3063 c9 -38 14 -42 14 -10 0 14 -5 29 -10 32 -7 4 -8 -3 -4
-22z"/>
<path d="M3546 3063 c-51 -4 -61 -10 -92 -57 -15 -24 -19 -48 -19 -120 0 -50
-4 -103 -9 -118 -7 -24 -5 -28 10 -28 17 0 19 10 22 76 2 61 7 82 25 104 12
16 24 29 27 29 3 1 11 -20 18 -46 7 -27 17 -64 22 -83 5 -19 10 -61 10 -92 0
-57 0 -58 29 -58 l29 0 -4 83 c-3 56 -1 76 5 62 5 -11 10 -48 10 -82 1 -56 3
-63 21 -63 18 0 20 7 20 58 1 31 7 68 14 82 13 23 14 21 18 -35 2 -33 1 -70
-4 -82 -11 -33 8 -38 28 -7 17 25 53 200 54 256 0 14 -12 40 -26 57 -21 26
-33 31 -68 31 -30 0 -48 6 -61 20 -10 11 -21 19 -24 18 -3 -1 -28 -3 -55 -5z"/>
<path d="M4550 3033 c0 -5 5 -15 10 -23 8 -12 10 -11 10 8 0 12 -4 22 -10 22
-5 0 -10 -3 -10 -7z"/>
<path d="M4531 2844 c0 -11 3 -14 6 -6 3 7 2 16 -1 19 -3 4 -6 -2 -5 -13z"/>
<path d="M2480 2612 c0 -7 -10 -13 -22 -13 -19 -1 -20 -2 -4 -6 20 -5 44 12
33 24 -4 3 -7 1 -7 -5z"/>
<path d="M4538 2513 c7 -3 16 -2 19 1 4 3 -2 6 -13 5 -11 0 -14 -3 -6 -6z"/>
<path d="M3140 2345 c0 -43 1 -45 28 -45 34 0 52 16 52 47 0 16 -8 27 -26 33
-47 18 -54 14 -54 -35z"/>
<path d="M2496 2268 c-14 -52 -2 -71 31 -50 10 6 10 15 1 40 -15 38 -23 40
-32 10z"/>
<path d="M4051 2245 c-6 -16 -14 -36 -16 -43 -5 -14 16 -26 38 -20 11 2 11 11
2 48 l-12 45 -12 -30z"/>
<path d="M2672 1998 c-15 -15 -16 -63 -2 -89 23 -42 90 -10 90 44 0 47 -57 76
-88 45z"/>
<path d="M3267 2013 c-11 -10 -8 -41 4 -48 19 -12 59 4 59 24 0 25 -45 42 -63
24z"/>
</g>
</svg>
