<?xml version="1.0" standalone="no"?>
<!DOCTYPE svg PUBLIC "-//W3C//DTD SVG 20010904//EN"
 "http://www.w3.org/TR/2001/REC-SVG-20010904/DTD/svg10.dtd">
<svg version="1.0" xmlns="http://www.w3.org/2000/svg"
 width="640.000000pt" height="640.000000pt" viewBox="0 0 640.000000 640.000000"
 preserveAspectRatio="xMidYMid meet">

<g transform="translate(0.000000,640.000000) scale(0.100000,-0.100000)"
fill="#000000" stroke="none">
<path d="M0 3200 l0 -3200 3200 0 3200 0 0 3200 0 3200 -3200 0 -3200 0 0
-3200z m3600 3126 c569 -81 1068 -293 1535 -651 116 -89 399 -371 503 -501
388 -486 624 -1069 682 -1689 13 -141 13 -428 0 -570 -108 -1171 -858 -2187
-1944 -2632 -197 -81 -349 -128 -545 -168 -266 -54 -327 -60 -656 -60 -294 1
-319 2 -474 29 -313 53 -531 118 -791 232 -844 372 -1483 1097 -1750 1986 -43
144 -90 371 -111 538 -18 137 -18 591 -1 720 57 414 149 717 323 1063 483 958
1428 1606 2504 1716 131 14 599 5 725 -13z"/>
<path d="M3006 5039 c-324 -42 -659 -212 -912 -464 -146 -146 -157 -158 -246
-293 -289 -436 -343 -915 -162 -1443 35 -102 111 -277 129 -297 2 -2 47 6 102
18 54 12 113 23 131 25 83 9 351 47 390 56 24 5 86 12 138 16 52 3 97 10 101
16 3 5 5 35 5 66 -1 60 5 91 17 91 4 0 17 -20 29 -44 15 -32 19 -55 15 -80 -5
-34 -4 -36 23 -36 44 0 74 11 74 26 0 7 -9 31 -20 52 -30 57 -64 242 -45 242
5 0 31 -11 60 -25 29 -13 81 -27 118 -31 71 -7 77 -13 77 -83 0 -43 -43 -117
-73 -127 -21 -7 -37 -21 -37 -36 0 -5 32 -8 71 -8 60 0 70 2 65 15 -7 19 35
106 49 101 18 -5 30 -66 17 -87 -7 -10 -12 -21 -12 -24 0 -9 125 -5 140 5 12
8 11 10 -7 10 -24 0 -30 19 -13 36 6 6 -2 37 -25 89 -19 44 -35 86 -35 94 0 7
10 29 21 48 12 20 25 49 28 66 10 47 27 43 47 -10 25 -68 33 -73 22 -14 -21
115 -74 207 -152 260 -58 40 -79 45 -184 43 -83 -2 -96 0 -132 23 -33 21 -40
31 -40 56 0 25 -12 42 -57 85 l-56 54 -131 -7 c-72 -3 -149 -6 -170 -5 -29 1
-49 -5 -75 -25 -60 -46 -109 -100 -122 -137 -7 -19 -21 -37 -31 -39 -10 -3
-18 -14 -18 -26 0 -12 -7 -24 -15 -27 -21 -8 -19 -21 4 -29 13 -4 20 -18 24
-46 7 -53 31 -88 73 -105 37 -16 102 -10 131 11 26 19 12 26 -28 15 -90 -26
-139 5 -139 88 0 28 6 54 13 60 15 12 176 7 190 -7 5 -5 23 -7 38 -4 38 7 59
-11 59 -53 0 -33 1 -34 40 -34 39 0 40 -1 40 -33 0 -18 6 -56 14 -83 20 -66
47 -267 37 -276 -4 -5 -40 34 -81 84 -123 152 -151 164 -391 161 -163 -1 -228
-10 -262 -35 -19 -14 -16 -23 61 -200 35 -80 14 -53 -31 40 -91 187 -128 293
-157 452 -52 289 -6 565 145 875 67 139 103 197 173 285 260 326 624 526 1025
561 335 30 656 -57 925 -249 319 -228 573 -613 647 -982 22 -108 30 -336 16
-466 -20 -191 -89 -435 -155 -544 -24 -39 -27 -32 -9 17 7 18 -28 28 -136 42
-52 7 -98 14 -103 17 -4 3 -8 37 -8 75 0 88 33 157 118 246 47 50 65 63 89 63
32 0 93 26 93 40 0 17 -28 28 -85 34 -32 4 -60 8 -62 10 -2 2 5 13 15 26 15
18 32 24 77 28 33 3 65 11 73 18 7 8 21 14 31 14 10 0 23 11 29 24 11 25 4 31
-67 52 l-24 6 24 13 c23 13 22 14 -31 29 -41 12 -87 15 -185 12 -175 -5 -208
-11 -287 -53 -15 -8 -47 -17 -70 -21 -36 -7 -43 -12 -42 -30 0 -18 -3 -21 -18
-16 -16 5 -19 2 -16 -17 3 -21 -3 -25 -57 -37 -59 -13 -99 -37 -89 -53 3 -5
13 -9 23 -9 21 0 78 -27 86 -41 4 -5 16 -9 28 -9 13 0 41 -9 62 -20 22 -11 41
-16 43 -11 4 11 42 2 42 -10 0 -5 27 -9 61 -9 55 0 64 -3 89 -30 43 -46 57
-87 39 -119 -21 -36 -36 -36 -99 1 -48 29 -87 70 -127 134 -11 18 -12 18 -12
-2 -1 -34 54 -106 118 -154 64 -48 86 -87 79 -145 -3 -30 -3 -30 -73 -31 -44
-1 -90 -9 -122 -22 l-53 -20 0 108 c0 100 2 109 23 123 l22 15 -26 10 c-15 6
-29 17 -32 25 -8 20 -57 10 -57 -12 0 -9 -5 -22 -12 -29 -8 -8 -8 -15 0 -25 9
-11 5 -24 -20 -62 -35 -52 -38 -83 -23 -222 7 -64 10 -73 28 -73 19 0 20 4 14
85 -3 47 -3 85 2 85 7 0 33 -88 36 -125 1 -11 -3 -23 -9 -27 -6 -4 -8 -10 -4
-13 3 -3 84 -17 179 -30 96 -13 202 -30 237 -36 60 -11 64 -10 90 12 15 13 21
17 15 9 -26 -28 -13 -38 77 -55 49 -10 93 -18 97 -18 23 -1 117 221 158 374
53 198 59 251 59 489 0 239 -13 338 -66 494 -57 169 -198 416 -314 553 -97
113 -250 249 -386 341 -152 104 -455 222 -631 247 -111 16 -302 18 -411 4z
m1237 -1660 c69 -23 92 -38 62 -40 -66 -5 -225 -3 -225 2 0 3 30 10 68 15 l67
9 -45 17 c-39 14 -41 17 -17 17 15 1 56 -8 90 -20z m135 -27 c3 -9 -2 -13 -14
-10 -9 1 -19 9 -22 16 -3 9 2 13 14 10 9 -1 19 -9 22 -16z m2 -155 c0 -21 -28
-54 -66 -77 -19 -12 -36 -21 -38 -19 -1 2 -12 17 -24 33 l-23 29 43 23 c48 25
108 31 108 11z m-2369 -559 c8 -15 8 -18 0 -14 -6 4 -16 16 -22 28 -8 15 -8
18 0 14 6 -4 16 -16 22 -28z"/>
<path d="M2923 4465 c-45 -7 -86 -16 -92 -19 -6 -4 -18 -23 -27 -42 -10 -20
-33 -46 -53 -59 -73 -46 -111 -142 -111 -281 0 -47 3 -52 58 -107 l58 -57 79
0 c50 1 89 6 105 15 37 21 65 18 99 -11 17 -14 38 -24 48 -22 16 3 18 -4 15
-46 -2 -43 2 -54 33 -92 19 -23 35 -48 35 -55 0 -8 10 -37 22 -66 21 -52 21
-55 5 -101 -24 -66 -21 -100 12 -173 15 -35 36 -85 46 -112 28 -78 53 -90 136
-67 39 11 109 84 109 114 0 9 11 23 25 32 20 13 25 25 25 55 0 34 5 42 40 64
56 35 66 66 41 124 -17 40 -18 49 -6 78 8 18 31 47 52 65 99 85 137 126 154
163 29 64 27 66 -44 59 -59 -6 -63 -5 -90 22 -43 44 -103 127 -112 155 -4 13
-18 44 -31 69 -43 83 -55 122 -43 136 17 20 1 34 -38 34 -19 0 -66 10 -104 21
-67 20 -71 21 -90 3 -18 -17 -21 -16 -69 6 -59 27 -85 53 -76 75 13 35 -66 43
-211 20z"/>
<path d="M3469 3016 c-39 -52 -43 -74 -25 -116 11 -25 15 -29 16 -14 0 19 47
74 64 74 4 0 5 -8 1 -19 -3 -10 4 -39 15 -65 14 -34 20 -70 20 -121 0 -65 2
-74 20 -80 32 -10 38 1 28 51 -11 49 -2 122 12 108 5 -5 10 -39 11 -76 1 -37
5 -72 9 -79 16 -24 30 4 30 60 0 35 6 65 15 77 13 18 15 15 17 -31 1 -27 2
-65 1 -82 0 -18 3 -33 7 -33 15 0 33 59 51 165 15 86 17 116 8 137 -14 35 -50
58 -91 58 -19 0 -43 7 -55 15 -14 10 -41 15 -74 14 -48 -2 -53 -5 -80 -43z"/>
<path d="M3276 2878 c-19 -79 -17 -104 9 -114 37 -15 62 57 31 89 -8 8 -16 34
-18 58 -3 44 -3 43 -22 -33z"/>
<path d="M3436 2801 c-4 -24 -5 -46 -2 -48 7 -7 19 63 14 79 -3 7 -8 -7 -12
-31z"/>
<path d="M2725 2534 c-22 -2 -103 -9 -180 -15 -164 -12 -566 -61 -745 -90
-138 -22 -371 -68 -382 -75 -9 -6 -5 -40 5 -50 13 -13 8 -44 -6 -38 -8 3 -20
-2 -27 -11 -11 -13 -11 -27 -2 -74 7 -31 12 -71 12 -88 0 -31 -1 -32 -77 -49
-79 -17 -303 -80 -310 -87 -2 -2 16 -24 40 -48 l43 -44 17 -180 c10 -99 19
-227 22 -285 2 -58 8 -104 12 -104 4 1 86 27 181 58 95 31 205 64 245 75 39
11 184 49 322 86 227 60 272 76 260 95 -7 11 343 79 485 95 336 36 672 41 965
14 206 -19 615 -84 613 -98 -2 -22 6 -30 35 -36 84 -18 406 -106 435 -120 18
-8 50 -15 71 -15 20 0 118 -21 217 -46 98 -25 188 -48 199 -51 19 -4 20 0 16
112 -2 92 0 126 14 163 36 97 107 255 137 303 17 28 29 51 27 53 -4 4 -197 59
-334 96 -44 12 -83 24 -86 26 -4 2 -2 27 3 55 6 35 6 55 -1 62 -8 8 -11 5 -12
-8 -1 -15 -3 -14 -9 6 -4 14 -4 48 0 75 6 33 4 53 -3 60 -34 33 -617 122
-1047 160 -172 15 -1042 29 -1155 18z m255 -109 l0 -44 -67 -3 -68 -3 -3 -32
-3 -33 50 0 51 0 0 -39 0 -40 -47 -3 -48 -3 -3 -57 -3 -58 -54 0 -55 0 0 174
c0 130 3 176 13 179 6 3 63 6 125 6 l112 1 0 -45z m288 31 c40 -21 62 -49 69
-90 5 -33 -11 -96 -26 -96 -3 0 -17 -9 -30 -19 l-24 -19 46 -54 c26 -31 47
-58 47 -62 0 -3 -27 -6 -60 -6 l-60 0 -37 49 c-21 28 -41 50 -45 50 -5 1 -8
-19 -8 -44 l0 -45 -55 0 -56 0 1 169 c1 93 4 172 8 175 12 13 203 6 230 -8z
m280 -174 l2 -183 -52 3 -53 3 -3 170 c-1 93 0 175 3 183 3 9 20 12 52 10 l48
-3 3 -183z m-991 146 c13 -17 135 -319 131 -323 -2 -2 -25 -7 -51 -10 -43 -6
-48 -5 -58 19 -10 22 -19 26 -56 26 -38 0 -45 -4 -56 -27 -6 -16 -16 -31 -22
-35 -15 -11 -95 -9 -95 2 0 20 93 335 103 348 5 6 29 12 52 12 23 0 47 -6 52
-12z m1326 -6 c22 -19 -3 -98 -29 -94 -73 13 -81 13 -93 -2 -8 -9 -16 -35 -18
-59 -7 -60 18 -90 78 -91 24 -1 43 -4 42 -8 -2 -5 -3 -26 -3 -48 l0 -40 -56 0
c-111 0 -174 66 -174 185 0 71 35 139 83 161 38 17 148 14 170 -4z m241 -21
c10 -16 97 -363 93 -368 -3 -2 -26 -1 -52 3 -40 6 -49 11 -59 35 -6 16 -18 29
-27 29 -9 0 -30 3 -46 6 -25 5 -31 2 -41 -21 -12 -26 -15 -27 -60 -20 -26 4
-50 9 -54 11 -4 3 6 31 22 63 16 33 46 99 66 147 53 131 48 124 104 124 27 0
51 -4 54 -9z m-1120 -367 c3 -9 6 -47 6 -86 0 -51 -3 -69 -12 -66 -7 3 -15 24
-19 49 l-5 44 -22 -47 c-29 -64 -54 -65 -85 -2 l-22 47 -5 -47 c-8 -75 -25
-54 -25 31 0 66 3 78 17 81 13 2 25 -12 45 -52 15 -31 30 -56 33 -56 4 0 18
27 33 60 25 59 49 76 61 44z m185 0 c12 -10 -16 -24 -50 -24 -53 0 -55 -27 -1
-32 25 -2 37 -8 37 -18 0 -10 -12 -16 -37 -18 -54 -5 -51 -30 4 -34 23 -2 43
-9 46 -15 3 -10 -14 -13 -62 -13 l-66 0 0 78 c0 43 2 81 5 84 5 5 117 -2 124
-8z m159 -6 c15 -13 16 -60 1 -75 -8 -8 -6 -19 5 -41 14 -28 13 -42 -5 -42 -4
0 -17 16 -29 35 -26 42 -48 45 -52 8 -2 -17 -10 -29 -20 -31 -16 -3 -18 6 -18
76 0 43 3 82 7 86 9 9 94 -4 111 -16z m-583 -13 c29 -28 34 -88 10 -122 -21
-31 -78 -40 -110 -19 -37 24 -47 58 -32 103 20 63 88 82 132 38z m803 19 c33
-9 21 -29 -18 -29 -44 0 -49 -19 -10 -35 43 -18 65 -52 50 -79 -6 -12 -21 -22
-33 -23 -63 -4 -101 12 -80 33 7 7 17 8 28 1 20 -10 55 -5 55 9 0 5 -17 17
-37 26 -29 14 -39 25 -41 48 -5 45 29 64 86 49z m-958 -18 c0 -8 -10 -16 -22
-18 -21 -3 -23 -10 -28 -72 -7 -94 -26 -97 -35 -6 -7 66 -8 70 -32 70 -47 0
-17 25 38 31 30 3 60 6 67 7 6 1 12 -4 12 -12z m1108 6 c34 -10 23 -27 -18
-28 -50 -1 -54 -29 -6 -38 48 -9 49 -36 1 -36 -51 0 -47 -28 5 -36 24 -4 40
-12 40 -20 0 -15 -16 -17 -72 -8 l-38 7 0 77 c0 42 3 80 7 83 8 8 49 7 81 -1z
m86 -45 c11 -45 22 -47 31 -7 7 33 22 47 35 34 9 -10 -47 -164 -61 -164 -9 0
-10 4 -29 98 -13 69 -13 85 3 80 6 -3 16 -21 21 -41z m-1357 16 c3 -7 -8 -13
-24 -15 -32 -4 -38 -31 -8 -36 53 -10 73 -68 33 -96 -30 -21 -98 -21 -98 -1 0
10 10 15 33 15 31 0 57 14 57 32 0 4 -18 12 -40 18 -52 14 -66 53 -30 82 25
20 71 21 77 1z m1484 -37 c0 -17 4 -39 8 -50 6 -15 10 -11 26 23 21 47 40 67
49 52 6 -8 -54 -143 -71 -161 -18 -20 -64 154 -48 180 12 19 35 -10 36 -44z
m-1613 -37 c3 -73 -8 -95 -53 -108 -64 -18 -95 18 -95 110 0 36 4 49 15 49 14
0 21 -26 27 -95 2 -24 8 -31 30 -33 37 -4 52 27 44 88 -3 25 -3 50 1 53 17 18
28 -5 31 -64z m1747 49 c2 -7 1 -44 -3 -83 -5 -52 -11 -70 -22 -70 -12 0 -14
11 -12 55 2 30 5 67 8 83 6 28 21 36 29 15z m-1937 -37 c-2 -11 -12 -15 -34
-13 -40 4 -64 -19 -64 -62 0 -44 19 -59 64 -50 40 7 49 -8 17 -26 -30 -15 -66
-12 -92 9 -31 25 -34 98 -5 130 35 38 121 47 114 12z m2107 9 c24 -27 13 -36
-25 -20 -45 19 -80 1 -80 -41 0 -46 25 -69 72 -69 48 0 48 -23 0 -28 -91 -9
-145 95 -82 158 27 27 91 27 115 0z m158 -27 c21 -12 -3 -28 -37 -25 -32 3
-37 1 -34 -15 2 -12 14 -19 36 -21 20 -2 32 -9 32 -18 0 -12 -9 -15 -37 -12
-29 2 -39 -1 -41 -14 -2 -12 7 -18 37 -23 26 -4 41 -12 41 -21 0 -12 -9 -14
-47 -8 -27 3 -51 8 -55 11 -9 5 -10 108 -2 141 6 21 10 22 53 16 25 -4 50 -9
54 -11z"/>
<path d="M3142 2343 c4 -46 33 -56 63 -23 25 28 10 54 -34 58 -32 3 -32 3 -29
-35z"/>
<path d="M2496 2258 c-9 -35 -8 -38 14 -38 11 0 20 3 20 8 0 19 -13 52 -20 52
-4 0 -10 -10 -14 -22z"/>
<path d="M4051 2236 c-14 -34 -8 -56 14 -56 16 0 18 19 5 60 l-7 25 -12 -29z"/>
<path d="M3265 2000 c-4 -7 -3 -16 3 -22 14 -14 57 -6 57 12 0 18 -50 26 -60
10z"/>
<path d="M2676 1994 c-22 -22 -20 -67 4 -89 44 -40 99 29 65 81 -18 28 -47 31
-69 8z"/>
<path d="M4175 1610 c4 -6 11 -8 16 -5 14 9 11 15 -7 15 -8 0 -12 -5 -9 -10z"/>
</g>
</svg>
